<svg width="64" height="64" viewBox="0 0 512 512" fill="none" xmlns="http://www.w3.org/2000/svg">
<rect x="24" y="24" width="464" height="464" rx="96" fill="#0F172A"/>
<path d="M118 124 C96 124 84 136 84 158 V202 C84 220 76 232 62 238 C76 244 84 256 84 274 V354 C84 376 96 388 118 388 H140 V354 H132 C128 354 124 350 124 346 V282 C124 260 114 246 98 238 C114 230 124 216 124 194 V166 C124 162 128 158 132 158 H140 V124 H118Z" fill="#FFFFFF"/>
<path d="M394 124 C416 124 428 136 428 158 V202 C428 220 436 232 450 238 C436 244 428 256 428 274 V354 C428 376 416 388 394 388 H372 V354 H380 C384 354 388 350 388 346 V282 C388 260 398 246 414 238 C398 230 388 216 388 194 V166 C388 162 384 158 380 158 H372 V124 H394Z" fill="#2563EB"/>
<path d="M198 172 C198 156 210 144 226 144 H250 V178 H238 C234 178 232 180 232 184 V302 C232 336 208 360 176 360 C144 360 120 336 120 302 V286 H154 V300 C154 316 162 326 176 326 C190 326 198 316 198 300 V172Z" fill="#FFFFFF"/>
<path d="M274 144 H318 C372 144 410 182 410 238 C410 294 372 332 318 332 H274 V144Z M308 178 V298 H318 C350 298 376 272 376 238 C376 204 350 178 318 178 H308Z" fill="#FFFFFF"/>
</svg>