<svg width="1400" height="420" viewBox="0 0 1400 420" fill="none" xmlns="http://www.w3.org/2000/svg">
<title>Jason Donmoyer Logo Light</title>
<g transform="translate(40,26) scale(0.78)">
<path d="M104 98 C78 98 62 114 62 140 V192 C62 212 52 224 34 230 C52 236 62 248 62 268 V372 C62 398 78 414 104 414 H128 V374 H116 C108 374 102 368 102 360 V278 C102 252 90 236 72 230 C90 224 102 208 102 182 V152 C102 144 108 138 116 138 H128 V98 H104Z" fill="#0F172A"/>
<path d="M408 98 C434 98 450 114 450 140 V192 C450 212 460 224 478 230 C460 236 450 248 450 268 V372 C450 398 434 414 408 414 H384 V374 H396 C404 374 410 368 410 360 V278 C410 252 422 236 440 230 C422 224 410 208 410 182 V152 C410 144 404 138 396 138 H384 V98 H408Z" fill="#2563EB"/>
<path d="M188 154 C188 136 202 122 220 122 H248 V162 H232 C228 162 224 166 224 170 V320 C224 360 196 388 158 388 C120 388 92 360 92 320 V300 H128 V318 C128 340 140 352 158 352 C176 352 188 340 188 318 V154Z" fill="#0F172A"/>
<path d="M270 122 H322 C385 122 430 167 430 230 C430 293 385 338 322 338 H270 V122Z M306 162 V298 H320 C360 298 392 270 392 230 C392 190 360 162 320 162 H306Z" fill="#0F172A"/>
</g>
<text x="470" y="175" fill="#6B7280" font-family="Inter, Arial, Helvetica, sans-serif" font-size="88" font-weight="400" letter-spacing="10">JASON</text>
<text x="470" y="290" fill="#0F172A" font-family="Inter, Arial, Helvetica, sans-serif" font-size="96" font-weight="800" letter-spacing="2">DONMOYER</text>
</svg>